# xmcd
#
# Track frame offsets:
# 150
# 23002
# 44969
# 55415
# 64831
# 77703
# 89852
# 99076
# 112775
# 126453
# 134241
# 159342
# 181097
# 202414
# 225677
# 246648
# 270618
# 276569
# 290202
# 315227
# 335436
# 346188
# 356765
#
# Disc length: 4764 seconds
#
#
# Revision: 0
# Processed by: cddbd v1.5.2PL0 Copyright (c) Steve Scherf et al.
# Submitted via: FreeRIP 2.96 
#
DISCID=73129a17
DTITLE=Andreas Franz - Tödliches Lachen CD1v6
DYEAR=2006
DGENRE=Speech
TTITLE0=001 Prolog, März bis April 1988
TTITLE1=002 Mike wusste, was dieses Stöhnen und diese Schreie
TTITLE2=003 An einem Nachmittag
TTITLE3=004 Montag, 10. Januar 2005
TTITLE4=005 Gibt es absolut keine Chance mehr
TTITLE5=006 Montag, 15.50 Uhr
TTITLE6=007 Dieser verdammte Mistkerl
TTITLE7=008 Dienstag, 15. November 2005, 20.20 Uhr
TTITLE8=009 Ich bin ehrlich, ich hoffe, du auch
TTITLE9=010 Mittwoch, 20.00 Uhr
TTITLE10=011 Ich hatte noch einen unerwarteten aber wichtigen Termin
TTITLE11=012 Wo wohnst du ?
TTITLE12=013 Nach einer Viertelstunde blickte sie auf
TTITLE13=014 Svenja nickte
TTITLE14=015 Beantworte mir eine Frage
TTITLE15=016 Seit wann machst du das ?
TTITLE16=017 Vor dem Gehen steckte er das Videoband
TTITLE17=018 Donnerstag, 7.00 Uhr
TTITLE18=019 Die Morde wiesen gewisse Parallelen auf
TTITLE19=020 Doch Durant meinte, es gebe kein festgelegtes Ritual
TTITLE20=021 Unsere Leute aus der Computerabteilung
TTITLE21=022 Auch weniger schöne Sachen
TTITLE22=CD-Wechsel
EXTD=gelesen von Julia Fischer
EXTT0=
EXTT1=
EXTT2=
EXTT3=
EXTT4=
EXTT5=
EXTT6=
EXTT7=
EXTT8=
EXTT9=
EXTT10=
EXTT11=
EXTT12=
EXTT13=
EXTT14=
EXTT15=
EXTT16=
EXTT17=
EXTT18=
EXTT19=
EXTT20=
EXTT21=
EXTT22=
PLAYORDER=
